# xmcd
#
# Track frame offsets:
# 150
# 21869
# 36987
# 51379
# 67708
# 83453
# 102665
# 121742
# 136344
# 161970
# 176228
# 199080
# 217464
# 231292
# 249893
# 270919
# 284584
#
# Disc length: 4020 seconds
#
#
# Revision: 0
# Processed by: cddbd v1.5.1PL0 Copyright (c) Steve Scherf et al.
# Submitted via: FreeRIP 2.60 
#
DISCID=fb0fb211
DTITLE=Amazan - Amazan ao vivo
DYEAR=2003
DGENRE=forro
TTITLE0=Galera do forro/Desejo de amar
TTITLE1=Trio que presta/Se mulher fosse musica
TTITLE2=De olho na calsinha
TTITLE3=Os cinco bichos que o homem gosta
TTITLE4=Benedita aparecida
TTITLE5=Forro do ferro eletrico/Galope a beira-mar
TTITLE6=me chama de laranja/O cavalo e a mulher
TTITLE7=Linda morena
TTITLE8=O cantador de voces
TTITLE9=Todo Botao é pitoco
TTITLE10=Por voce/Terra da felicidade/Paraibana
TTITLE11=A lei da vaquejada/Rei da vaquejada
TTITLE12=Brasil caboclo/Forrobodó
TTITLE13=Boi na cajarana/Bambole de otario
TTITLE14=O biriteiro/De olho no sutiã
TTITLE15=Menina de doze anos
TTITLE16=Amor na vaquejada
EXTD=by axel
EXTT0=
EXTT1=
EXTT2=
EXTT3=
EXTT4=
EXTT5=
EXTT6=
EXTT7=
EXTT8=
EXTT9=
EXTT10=
EXTT11=
EXTT12=
EXTT13=
EXTT14=
EXTT15=
EXTT16=
PLAYORDER=
